<?xml version="1.0" standalone="no"?>
<!DOCTYPE svg PUBLIC "-//W3C//DTD SVG 20010904//EN"
 "http://www.w3.org/TR/2001/REC-SVG-20010904/DTD/svg10.dtd">
<svg version="1.0" xmlns="http://www.w3.org/2000/svg"
 width="512.000000pt" height="512.000000pt" viewBox="0 0 512.000000 512.000000"
 preserveAspectRatio="xMidYMid meet">
<metadata>
Created by potrace 1.14, written by Peter Selinger 2001-2017
</metadata>
<g transform="translate(0.000000,512.000000) scale(0.100000,-0.100000)"
fill="#000000" stroke="none">
<path d="M2119 5011 l-29 -29 0 -181 0 -181 -80 0 c-86 0 -114 -14 -125 -62
-5 -26 -55 -322 -55 -332 0 -3 -14 -13 -30 -21 -30 -16 -35 -14 -191 45 -88
33 -174 60 -190 60 -37 0 -54 -18 -104 -108 l-40 -72 -252 0 -253 0 0 134 0
134 30 12 c39 16 106 92 121 137 6 19 9 63 7 98 -8 128 -98 216 -229 223 -84
5 -140 -19 -198 -84 -62 -71 -78 -183 -36 -264 24 -46 72 -96 105 -110 l30
-12 0 -173 c0 -178 8 -228 40 -245 11 -6 128 -10 279 -10 257 0 261 0 261 -21
0 -36 18 -56 155 -169 74 -62 135 -115 135 -120 0 -11 -179 -19 -513 -23 -274
-3 -287 -2 -293 16 -10 31 -74 97 -115 117 -116 60 -259 17 -325 -97 -24 -39
-28 -59 -28 -117 -1 -81 20 -129 76 -183 110 -106 310 -76 378 56 l19 38 218
6 c120 4 268 7 328 7 l110 0 -35 -27 c-74 -57 -110 -100 -110 -129 0 -18 33
-85 85 -174 l85 -145 -2 -180 -3 -180 -211 -3 -212 -2 -26 44 c-94 161 -328
160 -423 -2 -24 -40 -28 -58 -28 -122 0 -64 4 -82 28 -122 53 -90 163 -140
261 -118 65 14 130 61 162 115 l26 45 268 0 c249 0 269 1 291 19 24 19 24 22
29 251 l5 232 60 23 c33 13 90 35 127 49 64 25 70 26 98 11 16 -9 30 -18 30
-21 0 -8 49 -302 56 -337 7 -33 56 -67 97 -67 l27 0 0 -205 0 -205 -131 0
c-131 0 -161 -6 -186 -39 -9 -12 -12 -163 -13 -631 l0 -615 -370 -370 c-356
-356 -370 -372 -370 -408 0 -27 7 -45 25 -62 l24 -25 1340 0 c961 0 1347 3
1364 11 27 12 47 47 47 82 0 15 -89 110 -290 312 l-290 290 0 218 0 218 93
154 c50 85 95 155 98 155 4 0 69 -36 145 -81 76 -45 188 -107 249 -138 l110
-56 286 -3 287 -3 28 25 29 24 3 249 3 248 68 70 c38 39 74 80 80 92 6 13 11
76 11 152 l0 131 75 0 c90 0 129 15 173 64 31 36 37 58 32 128 -1 16 -56 148
-122 295 -66 148 -125 280 -130 295 -9 24 -5 36 28 85 126 189 142 454 47 773
-92 313 -302 598 -572 778 -115 77 -404 222 -443 222 -20 0 -38 -10 -59 -32
-16 -18 -29 -36 -29 -40 0 -5 -128 -8 -285 -8 l-285 0 0 90 c0 99 -10 132 -47
149 -16 7 -160 11 -454 11 l-431 0 -29 -29z m801 -238 c8 -153 -15 -143 316
-143 150 0 275 -4 278 -8 2 -4 -51 -85 -119 -179 -68 -94 -131 -185 -139 -202
l-17 -31 -148 0 -149 0 -23 38 c-30 47 -47 61 -81 62 -14 0 -99 -27 -187 -60
-156 -59 -161 -61 -191 -45 -16 8 -30 18 -30 21 0 34 -54 327 -65 351 -14 31
-28 39 -85 45 -25 3 -25 4 -28 117 -1 63 0 121 2 128 4 11 69 13 333 11 l328
-3 5 -102z m-2197 -74 c27 -12 47 -47 47 -80 0 -29 -53 -79 -84 -79 -41 0 -80
41 -80 85 0 29 7 43 28 61 30 26 53 30 89 13z m3203 -93 c170 -88 263 -156
376 -275 231 -243 358 -568 346 -885 -4 -104 -7 -119 -39 -187 -20 -41 -54
-96 -77 -122 -28 -32 -42 -58 -42 -77 0 -15 50 -140 111 -277 104 -232 169
-381 169 -389 0 -2 -53 -4 -117 -4 -106 0 -119 -2 -140 -22 -22 -20 -23 -28
-23 -160 0 -118 -2 -140 -16 -145 -23 -9 -158 22 -212 49 -25 12 -70 42 -101
67 -40 33 -64 45 -88 45 -56 0 -94 -55 -73 -108 21 -56 197 -166 315 -196 28
-7 52 -15 54 -17 3 -2 -6 -15 -20 -29 -24 -25 -24 -28 -27 -250 l-3 -224 -201
0 -201 0 -136 69 c-149 75 -225 118 -409 231 l-122 75 2 285 3 284 185 73
c118 47 191 82 202 96 15 19 18 47 18 212 l0 190 -125 168 -125 167 0 468 0
467 177 248 c97 136 181 247 186 247 6 0 74 -33 153 -74z m-1696 -157 c0 -45
55 -317 66 -330 26 -29 153 -99 179 -99 20 0 195 60 307 105 12 5 26 -9 57
-64 23 -38 44 -76 47 -84 4 -10 -37 -50 -125 -122 -72 -59 -132 -115 -133
-124 -4 -45 -5 -159 -1 -184 3 -20 37 -54 134 -133 71 -59 129 -109 129 -113
0 -9 -90 -161 -95 -161 -3 0 -71 25 -151 55 -81 30 -157 55 -169 55 -23 0
-117 -51 -166 -89 -16 -12 -29 -34 -32 -53 -3 -18 -16 -93 -28 -165 l-22 -133
-97 0 -97 0 -22 133 c-12 72 -25 147 -28 165 -3 19 -16 41 -32 53 -49 38 -143
89 -166 89 -12 0 -88 -25 -169 -55 -80 -30 -148 -55 -151 -55 -5 0 -95 152
-95 161 0 4 59 55 130 114 72 58 131 114 131 123 6 70 5 171 -3 193 -5 15 -63
70 -134 128 -85 70 -124 108 -120 118 3 8 24 46 47 84 31 55 45 69 57 64 108
-43 289 -105 308 -105 26 0 152 71 178 99 9 10 26 84 42 179 l27 162 99 0 c65
0 98 -4 98 -11z m1018 -566 l2 -163 -195 0 c-107 0 -195 2 -195 3 0 2 41 37
90 77 138 111 149 131 110 203 -11 20 -20 39 -20 42 0 3 46 4 103 3 l102 -3 3
-162z m-2769 -263 c31 -16 46 -65 31 -100 -38 -92 -159 -51 -151 51 3 45 74
74 120 49z m2771 -235 l0 -165 -105 0 c-58 0 -105 2 -105 5 0 3 9 22 20 42 38
71 31 85 -99 193 -56 45 -101 84 -101 86 0 2 88 4 195 4 l195 0 0 -165z m-601
-365 c208 -78 222 -78 270 3 l23 37 203 0 204 0 76 -101 76 -102 -3 -66 -3
-66 -162 -3 -163 -2 0 -80 0 -79 88 -3 87 -3 -110 -44 c-150 -60 -149 -59
-153 -181 l-4 -100 -454 0 -454 0 0 205 0 205 68 0 c80 0 127 23 136 67 7 35
56 329 56 337 0 4 47 34 57 36 1 0 74 -27 162 -60z m-1904 -405 c67 -66 -20
-171 -104 -125 -31 16 -46 65 -31 100 15 37 35 49 78 50 22 0 41 -8 57 -25z
m1592 -1155 l3 -605 -74 -85 c-41 -46 -79 -86 -85 -88 -8 -3 -11 56 -11 192
l0 196 -80 0 -80 0 0 -297 0 -298 -103 -115 -103 -115 -292 -3 c-161 -1 -292
1 -292 5 0 4 140 147 310 318 l310 311 0 590 c0 325 3 594 7 598 4 3 115 5
247 4 l241 -3 2 -605z m333 338 l5 -268 163 -163 c131 -131 162 -168 162 -190
l0 -27 -247 2 -248 3 -3 445 c-1 245 0 451 3 458 3 9 26 12 82 10 l78 -3 5
-267z m410 103 c0 -93 4 -181 10 -195 5 -14 34 -42 64 -61 l55 -35 -45 -78
c-25 -42 -57 -97 -71 -120 l-26 -44 -118 118 -119 119 0 226 c0 124 3 229 7
232 3 4 60 7 125 7 l118 0 0 -169z m-412 -1283 l-3 -373 -317 -3 c-175 -1
-318 1 -318 5 0 5 106 129 235 276 l235 268 0 100 0 99 85 0 85 0 -2 -372z
m332 242 c0 -96 4 -138 15 -158 8 -15 109 -121 225 -237 115 -115 210 -213
210 -217 0 -5 -138 -7 -307 -6 l-308 3 -3 373 -2 372 85 0 85 0 0 -130z"/>
<path d="M3580 4045 l0 -165 80 0 80 0 0 165 0 165 -80 0 -80 0 0 -165z"/>
<path d="M3587 3714 c-4 -4 -7 -43 -7 -86 l0 -78 80 0 81 0 -3 83 -3 82 -70 3
c-39 1 -74 0 -78 -4z"/>
<path d="M3584 3381 c-2 -2 -4 -40 -4 -83 l0 -78 80 0 81 0 -3 81 -3 81 -73 1
c-41 1 -76 0 -78 -2z"/>
<path d="M4261 3354 c-18 -23 -21 -41 -21 -119 l0 -93 -101 -4 c-97 -3 -102
-4 -126 -32 -19 -23 -23 -36 -19 -59 13 -64 22 -67 201 -67 215 0 205 -9 205
197 0 137 -2 153 -21 177 -16 20 -29 26 -59 26 -30 0 -43 -6 -59 -26z"/>
<path d="M2040 3951 c-90 -29 -174 -103 -212 -186 -34 -74 -32 -190 3 -266 33
-69 89 -127 155 -160 41 -20 64 -24 144 -24 111 0 167 21 233 89 64 66 92 136
92 231 0 96 -25 158 -88 223 -65 68 -127 95 -222 98 -44 2 -91 0 -105 -5z
m153 -165 c18 -7 44 -26 58 -42 126 -137 -40 -343 -203 -252 -95 54 -113 180
-36 255 55 53 117 66 181 39z"/>
<path d="M2508 2640 l4 -80 79 0 79 0 0 80 0 80 -82 0 -83 0 3 -80z"/>
<path d="M2840 2640 l0 -80 80 0 80 0 0 80 0 80 -80 0 -80 0 0 -80z"/>
<path d="M2010 1650 l0 -80 80 0 80 0 0 80 0 80 -80 0 -80 0 0 -80z"/>
<path d="M2010 1320 l0 -80 80 0 80 0 0 80 0 80 -80 0 -80 0 0 -80z"/>
</g>
</svg>
